<svg xmlns="http://www.w3.org/2000/svg" viewBox="0 0 320 200"><title>item-3</title><ellipse cx="162.16" cy="58.93" rx="3.16" ry="3.19" fill="none" stroke="#d5d5d6" stroke-miterlimit="10"/><path fill="none" stroke="#d5d5d6" stroke-miterlimit="10" d="M243.06 116.38h12.64v12.73h-12.64z"/><ellipse cx="256.85" cy="66.93" rx="3.15" ry="3.19" fill="#d5d5d6"/><ellipse cx="229.08" cy="146.48" rx="3.15" ry="3.19" fill="#d5d5d6"/><path fill="#d5d5d6" fill-rule="evenodd" d="M54.42 127.1l2.56-2.57-4.47-4.5 4.47-4.5-2.56-2.57-4.46 4.5-4.46-4.5-2.55 2.57 4.46 4.5-4.46 4.5 2.55 2.57 4.46-4.5 4.46 4.5zm53.06-88.99h-3.61v6.39h-6.32v3.61h6.32v6.37h3.61v-6.37h6.3V44.5h-6.3v-6.39z"/><path d="M234.15 47.32V61h-3.9v11.68h3.9V98h2V72.68H240V61h-3.9V47.32zm-13.66 3.9v17.56h-3.9v21.46h3.9V102h2V90.24h3.9V68.78h-3.9V51.22zm-13.66 3.9v25.37h-3.9V96.1h3.9v9.76h2V96.1h3.9V80.49h-3.9V55.12zM83.9 62.93v9.76H80v33.17h3.9v17.56h2v-17.57h3.9V72.68h-3.9v-9.75zm148.29 0H238v7.8h-5.8zm-39 2v19.46h-3.9v21.46h3.9v9.76h2v-9.76H199V84.39h-3.9V64.88zm25.37 5.85h5.85v17.51h-5.85zm-121 7.8v11.66h-3.9v25.37h3.9V141h2v-25.39h3.9V90.24h-3.9v-11.7zm82 0V98h-3.9v17.56h3.9v13.66h2v-13.61h3.9V98h-3.9V78.54zm-68.29 3.9v21.42h-3.9v19.51h3.9v19.51h2v-19.51h3.9V103.9h-3.9V82.44zm93.66 0h5.85v11.67h-5.85zm-13.66 3.9h5.85v17.52h-5.85zM124.88 98v11.71H121v15.61h3.9v25.37h2v-25.32h3.9v-15.61h-3.9V98zm41 0v11.71H162v21.46h3.9v17.56h2v-17.51h3.9v-21.46h-3.9V98zm11.71 2h5.85v13.66h-5.85zm-39 7.8v3.9h-3.9v23.41h3.9v15.61h2v-15.6h3.9v-23.41h-3.9v-3.9zm13.66 3.9v11.71h-3.9v5.85h3.9v23.41h2v-23.4H158v-5.85h-3.9v-11.71zm11.71 0h5.85v17.56h-5.91z" fill="#347ffb"/></svg>