<svg xmlns="http://www.w3.org/2000/svg" viewBox="0 0 320 200"><title>item-1</title><ellipse cx="48.16" cy="103.93" rx="3.16" ry="3.19" fill="none" stroke="#d5d5d6" stroke-miterlimit="10"/><path fill="none" stroke="#d5d5d6" stroke-miterlimit="10" d="M256.06 144.38h12.64v12.73h-12.64z"/><ellipse cx="271.85" cy="103.93" rx="3.15" ry="3.19" fill="#d5d5d6"/><ellipse cx="58.08" cy="148.48" rx="3.15" ry="3.19" fill="#d5d5d6"/><path fill="#d5d5d6" fill-rule="evenodd" d="M261.43 75.1l2.55-2.57-4.47-4.5 4.47-4.5-2.55-2.57-4.47 4.5-4.46-4.5-2.56 2.57 4.47 4.5-4.47 4.5 2.56 2.57 4.46-4.5 4.47 4.5zM77.48 47.11h-3.61v6.39h-6.32v3.61h6.32v6.37h3.61v-6.37h6.3V53.5h-6.3v-6.39z"/><path d="M154.83 22.5v10.33h3.88v20.74a20.65 20.65 0 0 0-19.37 20.51V84.5h-5.17a5.12 5.12 0 0 0-2.93.92l-19.1-10.61a3.75 3.75 0 0 0 .07-.64 3.89 3.89 0 0 0-2.58-3.64V56.08h3.88V45.75h-10.34v10.33H107v14.45a3.87 3.87 0 0 0 1.33 7.47 3.84 3.84 0 0 0 2.54-1l18.66 10.37a5.1 5.1 0 0 0-.53 2.24V109H92.83v-3.87H82.5v10.37h10.33v-3.87H129v9l-18.12 10.07a3.84 3.84 0 0 0-2.55-1 3.86 3.86 0 0 0-1.29 7.51v14.45h-3.87V162h10.33v-10.33h-3.87v-14.45a3.88 3.88 0 0 0 2.58-3.63 3.8 3.8 0 0 0-.07-.64l16.86-9.37v12.58a5.18 5.18 0 0 0 5.17 5.17h24.54v25.83h-3.87v10.34h10.33v-10.33h-3.87v-25.84h24.54a5.18 5.18 0 0 0 5.17-5.17v-12.58l16.86 9.36a3.8 3.8 0 0 0-.07.64 3.88 3.88 0 0 0 2.58 3.63v14.45h-3.88V162h10.33v-10.33H213v-14.45a3.86 3.86 0 0 0-1.29-7.51 3.84 3.84 0 0 0-2.54 1L191 120.63v-9h36.17v3.88h10.33v-10.34h-10.33V109H191V89.67a5.1 5.1 0 0 0-.53-2.24l18.66-10.37a3.84 3.84 0 0 0 2.54 1 3.87 3.87 0 0 0 1.33-7.53V56.08h3.88V45.75H206.5v10.33h3.88v14.45a3.89 3.89 0 0 0-2.58 3.64 3.75 3.75 0 0 0 .07.64l-19.1 10.61a5.12 5.12 0 0 0-2.93-.92h-5.17V74.07a20.65 20.65 0 0 0-19.37-20.51V32.83h3.88V22.5zm2.58 2.58h5.17v5.17h-5.17zm-51.66 23.25h5.17v5.17h-5.17zm103.33 0h5.17v5.17h-5.17zM160 56.08a18.06 18.06 0 0 1 18.08 18V84.5h-5.16V74.09a12.93 12.93 0 0 0-25.85 0V84.5h-5.15V74.07A18.06 18.06 0 0 1 160 56.08zm0 7.75a10.16 10.16 0 0 1 10.34 10.26V84.5h-20.69V74.09A10.16 10.16 0 0 1 160 63.83zm-51.66 9a1.29 1.29 0 1 1-1.34 1.34 1.27 1.27 0 0 1 1.33-1.29zm103.33 0a1.29 1.29 0 1 1-1.29 1.29 1.27 1.27 0 0 1 1.29-1.24zm-77.5 14.21h51.67a2.55 2.55 0 0 1 2.58 2.58v25.88h-56.84V89.67a2.55 2.55 0 0 1 2.59-2.59zM160 92.25a6.48 6.48 0 0 0-6.46 6.46 6.35 6.35 0 0 0 2.58 4.94v9.26h7.75v-9.27a6.35 6.35 0 0 0 2.58-4.93 6.48 6.48 0 0 0-6.45-6.46zm0 2.58a3.87 3.87 0 0 1 1.94 7.23l-.65.37v7.9h-2.58v-7.9l-.65-.37a3.87 3.87 0 0 1 1.94-7.23zm-74.92 12.92h5.17v5.17h-5.17zm144.67 0h5.17v5.17h-5.17zm-98.17 10.33h56.83V131h-56.83zm3.88 2.58v7.75h7.75v-7.75zm10.33 0v7.75h7.75v-7.75zm10.33 0v7.75h7.75v-7.75zm10.33 0v7.75h7.75v-7.75zm10.33 0v7.75h7.75v-7.75zM138 123.25h2.58v2.58H138zm10.33 0H151v2.58h-2.58zm10.33 0h2.58v2.58h-2.58zm10.33 0h2.58v2.58H169zm10.33 0H182v2.58h-2.58zm-71 9a1.29 1.29 0 1 1-1.29 1.29 1.27 1.27 0 0 1 1.3-1.25zm103.33 0a1.29 1.29 0 1 1-1.29 1.29 1.27 1.27 0 0 1 1.31-1.25zm-80.08 1.29h56.83v2.58a2.55 2.55 0 0 1-2.58 2.58h-51.65a2.55 2.55 0 0 1-2.58-2.58zm-25.83 20.67h5.17v5.17h-5.17zm103.33 0h5.17v5.17h-5.17zm-51.67 15.5h5.17v5.17h-5.17z" fill="#347ffb"/></svg>