<svg xmlns="http://www.w3.org/2000/svg" viewBox="0 0 320 200"><title>item-2</title><ellipse cx="48.16" cy="103.93" rx="3.16" ry="3.19" fill="none" stroke="#d5d5d6" stroke-miterlimit="10"/><path fill="none" stroke="#d5d5d6" stroke-miterlimit="10" d="M256.06 144.38h12.64v12.73h-12.64z"/><ellipse cx="271.85" cy="103.93" rx="3.15" ry="3.19" fill="#d5d5d6"/><ellipse cx="58.08" cy="148.48" rx="3.15" ry="3.19" fill="#d5d5d6"/><path fill="#d5d5d6" fill-rule="evenodd" d="M261.43 75.1l2.55-2.57-4.47-4.5 4.47-4.5-2.55-2.57-4.47 4.5-4.46-4.5-2.56 2.57 4.47 4.5-4.47 4.5 2.56 2.57 4.46-4.5 4.47 4.5zM77.48 47.11h-3.61v6.39h-6.32v3.61h6.32v6.37h3.61v-6.37h6.3V53.5h-6.3v-6.39z"/><path d="M154.47 51.72c1.16.63 2.43 1 3.72 1.57v7.19a4.1 4.1 0 0 1-3.64-3.3 1.81 1.81 0 1 0-3.55.68 6.54 6.54 0 0 0 3.55 5 33.62 33.62 0 0 0 3.64 1.57v1.79A1.82 1.82 0 0 0 160 68a1.79 1.79 0 0 0 1.76-1.81 8.25 8.25 0 0 0 0-1.46c0-.39.13-.5.53-.61a9.11 9.11 0 0 0 4.95-2.7 6 6 0 0 0-.88-9.22 10.31 10.31 0 0 0-2-1.08c-.85-.36-1.76-.61-2.56-.91v-7.36a.64.64 0 0 0 .27 0l.41.13a4.1 4.1 0 0 1 3 3.24 1.74 1.74 0 0 0 2 1.43h.06a1.9 1.9 0 0 0 1.49-2 7.05 7.05 0 0 0-4.3-5.55 24.54 24.54 0 0 0-2.89-1v-1.83a1.81 1.81 0 0 0-3.61 0v1.81a3.14 3.14 0 0 1-.44.16 20.66 20.66 0 0 0-3.36 1.38 6.28 6.28 0 0 0-3.43 5.15 5.75 5.75 0 0 0 3.47 5.95zm7.37 2.22a6.6 6.6 0 0 1 2.8 1.38 2.4 2.4 0 0 1 .38 3.14 5 5 0 0 1-3.14 2.06v-6.6zm-6.74-9.24a5.14 5.14 0 0 1 3.14-1.81v6.52a6.28 6.28 0 0 1-2.92-1.57 2.43 2.43 0 0 1-.22-3.16zm6.83 31.42a28.54 28.54 0 1 0 28.54 28.54v-.06a28.58 28.58 0 0 0-28.54-28.53zm-5.25 4.41a36.23 36.23 0 0 0-5.42 8.34 27.49 27.49 0 0 1-5.7-2.7 24.74 24.74 0 0 1 11.14-5.7zM142.86 89a31 31 0 0 0 7 3.44 36.23 36.23 0 0 0-2 10.31h-10.53a24.7 24.7 0 0 1 5.55-13.79zm-5.53 17.55h10.56a36.51 36.51 0 0 0 2 9.9 30 30 0 0 0-7 3.8 24.7 24.7 0 0 1-5.56-13.72zm8.19 16.45a26.33 26.33 0 0 1 5.8-3 39.49 39.49 0 0 0 5.56 8.77 24.73 24.73 0 0 1-11.36-5.77zm14.5 3.53a35 35 0 0 1-5-7.71 30.54 30.54 0 0 1 5-.69v8.4zm0-12.27a34.34 34.34 0 0 0-6.49 1 32.57 32.57 0 0 1-1.79-8.73H160zm0-11.62h-8.31a32.36 32.36 0 0 1 1.82-9.24 37.29 37.29 0 0 0 6.49.85v8.39zm0-12.21a33.56 33.56 0 0 1-4.95-.64 32.33 32.33 0 0 1 4.93-7.24v7.92zm26.53 12.21H176a36.13 36.13 0 0 0-2-10.31 31 31 0 0 0 7-3.44 24.7 24.7 0 0 1 5.55 13.76zm-8.26-16.56a27.54 27.54 0 0 1-5.7 2.7 36.34 36.34 0 0 0-5.42-8.33 24.74 24.74 0 0 1 11.12 5.66zm-14.42-3.55a32.47 32.47 0 0 1 4.93 7.26 33.32 33.32 0 0 1-4.93.64v-7.9zm0 11.77a37 37 0 0 0 6.49-.88 32.2 32.2 0 0 1 1.82 9.24h-8.31v-8.33zm0 12.21h8.26a32.19 32.19 0 0 1-1.79 8.73 34.37 34.37 0 0 0-6.47-1zm0 11.62a30.57 30.57 0 0 1 5 .71 34.83 34.83 0 0 1-5 7.7zm3.14 10.6a39.27 39.27 0 0 0 5.58-8.78 26.39 26.39 0 0 1 5.8 3 24.73 24.73 0 0 1-11.33 5.73zm14-8.53a30.08 30.08 0 0 0-7-3.8 36.13 36.13 0 0 0 2-9.9h10.56a24.71 24.71 0 0 1-5.48 13.68zm16.86 23.12h3.38a2 2 0 0 1 0 3.93h-4.71a9.35 9.35 0 0 0 0 2.62h4.71a2 2 0 0 1 0 3.93h-3.38a10.34 10.34 0 0 0 8.91 5.11 2 2 0 1 1 0 3.93 14.28 14.28 0 0 1-13.26-9H191a2 2 0 1 1 0-3.93h1.57v-2.61H191a2 2 0 1 1 0-3.93h2.47a14.28 14.28 0 0 1 13.26-9 2 2 0 1 1 0 3.93 10.34 10.34 0 0 0-8.88 5.06zM131 137.68a2 2 0 0 1-2 2h-5.81a10.34 10.34 0 0 1 2 3.66h2.2a2 2 0 0 1 0 3.93h-2.07c-.58 2.84-2.65 5.59-6.28 8.2l6.72 5.69a2 2 0 0 1-2.53 3l-8.72-7.37a2 2 0 0 1 .24-3.14c3.5-2.15 5.69-4.32 6.47-6.28h-3.49a2 2 0 1 1 0-3.93h3.14a11.37 11.37 0 0 0-3.74-3.66h-4.71a2 2 0 0 1 0-3.93h16.49a2 2 0 0 1 2.09 1.83zm-21.77-15.8a1.93 1.93 0 0 1-.5 0 2 2 0 0 1-1.9-1.46 55.11 55.11 0 0 1 25.62-61.5 2 2 0 0 1 2 3.39 51.18 51.18 0 0 0-23.8 57.1 2 2 0 0 1-1.32 2.44zm71 33.78a2 2 0 0 1-1.15 2.53 55.25 55.25 0 0 1-38.46-.16 2 2 0 0 1 1.38-3.68 51.56 51.56 0 0 0 35.71.14 2 2 0 0 1 2.53 1.15zM215 106.53a55.22 55.22 0 0 1-1.85 14.14 2 2 0 1 1-3.8-.94 51.18 51.18 0 0 0-23.9-57.53 2 2 0 0 1 2-3.41A55.22 55.22 0 0 1 215 106.53z" fill="#347ffb"/></svg>