<svg id="Слой_1" xmlns="http://www.w3.org/2000/svg" viewBox="0 0 160 280"><style>.st0{fill:#347ffb}.st1{fill:#fff}.st2{fill:#5e9fee}.st3{fill:#4765af}.st4{fill:#536ea7}.st5{fill:#0b0b0b}.st6{fill:#c3ced6}.st7{fill:#718493}.st8{fill:#e3e4e7}.st9{fill:#2b91d6}.st10{fill:#2b80d6}.st11{fill:#29a0dc}</style><title>sprite</title><path class="st0" d="M15 75.5c0-.1-.1-.3-.2-.4l-4.6-4.9c-.2-.2-.6-.2-.8 0s-.2.6 0 .8l3.7 3.9H.6c-.3 0-.6.3-.6.6s.3.6.6.6h12.5L9.4 80c-.2.2-.2.6 0 .8s.6.2.8 0l4.6-4.9c.1-.1.2-.2.2-.4zm-15 12c0 .1.1.3.2.4l4.6 4.9c.2.2.6.2.8 0s.2-.6 0-.8l-3.7-3.9h12.5c.3 0 .6-.3.6-.6s-.3-.6-.6-.6H1.9L5.6 83c.2-.2.2-.6 0-.8s-.6-.2-.8 0L.2 87.1c-.1.1-.2.2-.2.4z"/><path class="st1" d="M34.5 2.7l-6.7 18.9v.1l-1.2-2.6-2.6 1.2 6.8-19.1L33.3 0l1.2 2.7zm16.8.4l-6.7 19-1.2-2.6-2.6 1.2.2-.4 6.7-18.9L50.3.1l1.2 2.6-.2.4zM36.9 19.5l4-11.1-2.6 1.2L37 7l-4 11.1 1.2 2.6 2.7-1.2zm-21.4-11H3.7l2 2-2 2h11.8l2-2-2-2zM2 16.8h19.1l-2 2 2 2H2l-2-2 2-2zM7.9.3H27l-2 2 2 2H7.9l-2-2 2-2zm96.6 11.4c0-1 .2-2 .6-3 .7-1.9 2.2-3.3 4.1-4.1 1-.4 2-.6 3.1-.6s2.1.2 3.1.6c1.8.8 3.3 2.2 4 4.1.8 1.9.8 4 0 5.9-.7 1.9-2.2 3.3-4.1 4.1-1 .4-2.1.6-3.1.6-1.4 0-2.8-.3-4-1s-2.1-1.6-2.8-2.8c-.6-1.2-1-2.5-.9-3.8zm-42.7-1.4h7.8v2.6h-7.8v3.6H70v2.6H58.9V4.3h11v2.6h-8.1v3.4zm9.6 8.8l5.2-7.5-5-7.3h3.3l3.6 5.3 3.6-5.3h3.3l-4.9 7.2 5.2 7.6h-3.3l-3.8-5.6-3.8 5.6h-3.4zm16 0V4.3h3l4.5 6.6 4.5-6.6h3.1v14.8h-2.9V8.9l-4.7 6.4h-.1l-4.6-6.4v10.2h-2.8zm20-7.4c0 .9.2 1.8.6 2.6s1 1.4 1.7 1.9c.8.5 1.6.7 2.5.7 1.8 0 3.4-1 4.2-2.5.4-.8.6-1.7.6-2.6 0-.9-.2-1.8-.6-2.6s-1-1.4-1.8-1.9-1.6-.7-2.5-.7c-1.8 0-3.5.9-4.3 2.5-.2.8-.4 1.7-.4 2.6z"/><path class="st2" d="M58 51.2c8.3.1 15.1-6.6 15.2-15v-.9c1-.8 1.9-1.7 2.7-2.8-1 .4-2 .7-3.1.8 1.1-.7 2-1.7 2.3-3-1 .6-2.2 1.1-3.4 1.3-2-2.1-5.4-2.2-7.5-.2-1.4 1.3-2 3.2-1.5 5.1-4.3-.2-8.3-2.2-11-5.6-1.4 2.4-.7 5.6 1.7 7.1-.9 0-1.7-.2-2.5-.6v.1c0 2.5 1.8 4.7 4.3 5.2-.8.2-1.6.2-2.4.1.7 2.2 2.7 3.7 5 3.7-1.9 1.5-4.2 2.3-6.6 2.3-.4 0-.8 0-1.2-.1 2.2 1.7 5.1 2.5 8 2.5"/><path class="st3" d="M98.3 30.3c-1.3.1-2.5.7-3.4 1.7-1.1 1.1-1.4 2.3-1.6 5.3l-.1 2.8-1.6.1-1.6.1v4.8l1.6.1 1.6.1.1 7.7v7.8h6.5v-7.5c0-5.6.1-7.6.3-7.8.7-.3 1.5-.4 2.3-.3h2l.1-.8c.1-.4.2-1.5.3-2.4l.2-1.7h-2.5c-2.1 0-2.5-.1-2.6-.4-.1-1.2 0-2.5.2-3.7.1-.7 1.2-1 3.2-1h1.6V30h-2.6c-1.4 0-2.7.1-4 .3z"/><path class="st4" d="M144.9 40.3c1 .9 1.9 1.9 2.8 2.9.4.5.7.9 1 1.5.4.8 0 1.6-.6 1.6h-4.2c-1 .1-2-.3-2.7-1.1-.6-.6-1.1-1.2-1.7-1.8-.2-.3-.5-.5-.8-.7-.4-.3-.9-.3-1.2.1-.1.1-.1.2-.2.3-.3.6-.5 1.3-.4 2 0 1-.4 1.3-1.4 1.3-2.1.2-4.2-.3-6-1.3-1.6-1-3-2.3-4.1-3.8-2.1-3-3.9-6.2-5.3-9.5-.3-.8-.1-1.2.7-1.2h4.1c.5 0 1 .4 1.1.9.7 1.8 1.7 3.6 2.8 5.2.3.4.6.8 1 1.1.2.3.6.3.9 0 .1-.1.2-.2.2-.3.1-.3.2-.7.2-1.1.1-1.3.1-2.6-.1-3.8-.1-.7-.6-1.4-1.4-1.5-.4-.1-.3-.2-.1-.5.3-.4.8-.7 1.3-.6h4.8c.8.2.9.5 1 1.2v5.3c0 .3.1 1.2.7 1.4s.7-.2 1-.5c1.1-1.2 2-2.6 2.7-4.1.3-.7.6-1.3.9-2 .1-.5.6-.8 1.1-.7h5c.8.1 1 .5.8 1.2-.4 1.2-1 2.3-1.8 3.2-.8 1.1-1.6 2.1-2.4 3.2s-.6 1.3.3 2.1z"/><path class="st0" d="M30.3 90c-.2 0-.3.1-.3.3 0 .1 0 .1.1.2l8.5 8.5-8.5 8.5c-.1.1-.1.3 0 .4s.3.1.4 0l8.5-8.5 8.5 8.5c.1.1.3.1.4 0 .1-.1.1-.3 0-.4L39.4 99l8.5-8.5c.1-.1.1-.3 0-.4-.1-.1-.1-.1-.2-.1s-.1 0-.2.1L39 98.6l-8.5-8.5c-.1-.1-.2-.1-.2-.1z"/><path class="st5" d="M30.3 70c-.2 0-.3.1-.3.3 0 .1 0 .1.1.2l8.5 8.5-8.5 8.5c-.1.1-.1.3 0 .4s.2.1.3 0l8.5-8.5 8.5 8.5c.1.1.3.1.4 0 .1-.1.1-.3 0-.4L39.3 79l8.5-8.5c.1-.1.1-.3 0-.4-.1-.1-.1-.1-.2-.1s-.1 0-.2.1l-8.5 8.5-8.6-8.6c.1 0 0 0 0 0z"/><path class="st6" d="M86 110.5c0-.1 0-.1 0 0 0-.1 0-.1 0 0z"/><path class="st7" d="M26 39.1c0 .3-.1.5-.3.7l-6.6 7.8c-.4.5-1.1.6-1.6.2h-.1c-.5-.4-.6-1.1-.2-1.6v-.1l6-7.1-6-7.2c-.4-.5-.3-1.2.2-1.6s1.3-.3 1.7.2l6.6 7.8c.2.4.3.6.3.9zm-26 0c0-.3.1-.5.3-.7l6.6-7.8c.4-.5 1.2-.6 1.7-.2s.6 1.1.2 1.6l-6 7.1 6 7.2c.4.5.4 1.2-.1 1.6-.5.4-1.2.3-1.7-.1L.4 40c-.3-.4-.4-.6-.4-.9z"/><path class="st1" d="M44.9 142l-3.1-4.6.4-5.5c0-.4-.2-.9-.6-1l-5-2.4-2.4-5c-.2-.4-.6-.7-1-.6l-5.6.3-4.6-3.1c-.4-.2-.9-.2-1.2 0l-4.5 3-5.5-.4c-.4 0-.9.2-1 .6l-2.4 5-5 2.4c-.4.2-.7.6-.6 1l.4 5.5-3 4.6c-.2.4-.2.8 0 1.2l3 4.6-.4 5.5c0 .4.2.9.6 1l5 2.4 2.4 5c.2.4.6.7 1 .6l5.5-.4 4.6 3c.2.2.4.2.6.2s.4-.1.6-.2l4.6-3 5.5.4c.4 0 .9-.2 1-.6l2.4-5 5-2.4c.4-.2.7-.6.6-1l-.3-5.5 3-4.6c.2-.3.2-.7 0-1zm-5.1 4.8c-.2.2-.2.4-.2.7l.3 5.2-4.6 2.3c-.2.1-.4.3-.5.5l-2.3 4.6-5.2-.3c-.2 0-.4.1-.7.2l-4.3 2.9L18 160c-.2-.2-.4-.2-.6-.2h-.1l-5.2.3-2.3-4.6c-.1-.2-.3-.4-.5-.5L5 152.6l.3-5.2c0-.2-.1-.4-.2-.7l-2.9-4.3 2.9-4.3c.2-.2.2-.4.2-.7l-.3-5 4.6-2.3c.2-.1.4-.3.5-.5l2.3-4.6 5.2.3c.2 0 .4-.1.7-.2l4.3-2.9 4.3 2.9c.2.2.4.2.7.2l5.2-.3 2.3 4.6c.1.2.3.4.5.5l4.6 2.3-.3 5.2c0 .2.1.4.2.7l2.9 4.3-3.2 4.2z"/><path class="st1" d="M16.8 141.2c2.7 0 5-2.2 5-5 0-2.7-2.2-5-5-5-2.7 0-5 2.2-5 5 .1 2.8 2.3 5 5 5zm0-7.8c1.6 0 2.8 1.3 2.8 2.8 0 1.6-1.3 2.8-2.8 2.8s-2.8-1.3-2.8-2.8 1.3-2.8 2.8-2.8zM28 143.8c-2.7 0-5 2.2-5 5 0 2.7 2.2 5 5 5 2.7 0 5-2.2 5-5s-2.3-5-5-5zm0 7.8c-1.6 0-2.8-1.3-2.8-2.8s1.3-2.8 2.8-2.8 2.8 1.3 2.8 2.8-1.3 2.8-2.8 2.8z"/><path transform="rotate(-45.001 22.398 142.505)" class="st1" d="M9.4 141.4h26v2.2h-26z"/><path class="st1" d="M96 159.3H82.2v-3.6h-3.6v-4.3h7.9c1.2 0 2.1-1 2.1-2.1v-15.7c0-1.2-1-2.1-2.1-2.1H85v-4.3c0-3.9-3.2-7.2-7.2-7.2-3.9 0-7.2 3.2-7.2 7.2v4.3h-1.4c-1.2 0-2.1 1-2.1 2.1v15.7c0 1.2 1 2.1 2.1 2.1h7.9v4.3h-3.6v3.6H60v1.4h13.6v3.6h8.6v-3.6H96v-1.4zm-23.8-32.1c0-3.2 2.6-5.7 5.7-5.7 3.2 0 5.7 2.6 5.7 5.7v4.3H72.2v-4.3zm-2.9 22.9c-.4 0-.7-.3-.7-.7v-15.7c0-.4.3-.7.7-.7h17.1c.4 0 .7.3.7.7v15.7c0 .4-.3.7-.7.7H69.3zm11.4 12.8H75v-5.7h5.7v5.7z"/><path class="st1" d="M77.2 159.3h1.4v1.4h-1.4zM76.1 143l-.6 2.8h4.6l-.6-2.8c.7-.5 1.1-1.4 1.1-2.3 0-1.6-1.3-2.9-2.9-2.9s-2.9 1.3-2.9 2.9c.2.9.6 1.8 1.3 2.3zm1.8-3.7c.8 0 1.4.6 1.4 1.4 0 .5-.3 1-.8 1.3l-.5.2.4 2.1h-1.1l.4-2.1-.5-.2c-.5-.2-.8-.7-.8-1.3.1-.7.7-1.4 1.5-1.4zm-.7 7.9h1.4v1.4h-1.4zm2.8 0h1.4v1.4H80zm-5.7 0h1.4v1.4h-1.4zm58.2-27.2c-12.4 0-22.5 10.1-22.5 22.5s10.1 22.5 22.5 22.5 22.5-10.1 22.5-22.5-10.1-22.5-22.5-22.5zm0 43.5c-11.6 0-21-9.4-21-21s9.4-21 21-21 21 9.4 21 21-9.4 21-21 21z"/><path class="st1" d="M149.8 134.9c-.3-.3-.7-.3-1 0l-4.3 4.3c-.5-.3-1-.5-1.6-.5-.8 0-1.6.3-2.2.9l-3.5-2.2c.1-.3.2-.6.2-1 0-1.7-1.4-3.1-3.1-3.1-1.7 0-3.1 1.4-3.1 3.1 0 1 .5 1.9 1.2 2.4l-2.9 6.6c-.2 0-.4-.1-.6-.1-.7 0-1.3.2-1.8.6l-3.3-2.9c.2-.4.4-.9.4-1.4 0-1.7-1.4-3.1-3.1-3.1s-3.1 1.4-3.1 3.1c0 .6.2 1.2.5 1.6l-3.5 3.5c-.3.3-.3.7 0 1 .1.1.3.2.5.2s.3-.1.5-.2l3.5-3.5c.5.3 1 .5 1.6.5.7 0 1.3-.2 1.8-.6l3.3 2.8c-.2.4-.4.9-.4 1.4 0 1.7 1.4 3.1 3.1 3.1s3.1-1.4 3.1-3.1c0-1-.5-1.9-1.2-2.5l2.9-6.6c.2 0 .4.1.6.1.8 0 1.6-.3 2.2-.9l3.5 2.2c-.1.3-.2.6-.2 1 0 1.7 1.4 3.1 3.1 3.1 1.7 0 3.1-1.4 3.1-3.1 0-.6-.2-1.2-.5-1.6l4.3-4.3c.3-.1.3-.6 0-.8zm-28.5 8.6c-.9 0-1.7-.8-1.7-1.7s.8-1.7 1.7-1.7c.9 0 1.7.8 1.7 1.7s-.8 1.7-1.7 1.7zm7.8 6.7c-.9 0-1.7-.8-1.7-1.7s.8-1.7 1.7-1.7 1.7.8 1.7 1.7c0 1-.8 1.7-1.7 1.7zm5.3-12c-.9 0-1.7-.8-1.7-1.7s.8-1.7 1.7-1.7 1.7.8 1.7 1.7c0 .9-.8 1.7-1.7 1.7zm8.5 5.3c-.9 0-1.7-.8-1.7-1.7s.8-1.7 1.7-1.7c.5 0 .9.2 1.2.5.3.3.5.7.5 1.2 0 .9-.8 1.7-1.7 1.7zM26 200.8c-.4 1.4-.1 2.8.6 4 .9 1.4 2.5 2.5 4.2 2.5h.3c.9 0 1.8-.2 2.6-.6 2.5-1.3 3.4-4.3 2.1-6.9-.6-1.3-1.8-2.2-3.2-2.7-.4-.1-.8-.2-1.2-.2-1-.1-1.9.1-2.8.6-1.4.8-2.3 1.9-2.6 3.3zm3.4-1.5c.5-.3 1.1-.4 1.7-.4h.1c.3 0 .5.1.8.1.9.3 1.6.9 2 1.7.9 1.5.3 3.5-1.3 4.3-.6.3-1.2.4-1.9.4-1.1-.1-2.1-.6-2.7-1.6-.5-.8-.6-1.7-.4-2.6.3-.7.9-1.4 1.7-1.9z"/><path class="st1" d="M43.9 199.3c-1.4-.5-2.3-1.3-3-2.7s-.9-2.5-.6-3.8c.1-.8-.1-1.5-.8-1.9l-1-.6c-.4-.3-.9-.6-1.4-.8-.5-.3-1.3-.4-1.8-.1-.1.1-.2.1-.4.2l-.1.1c-.2.1-.5.4-.7.5-.1.1-.1.1-.2.1-1.1.4-2.1.6-3 .5s-1.7-.3-2.4-.8c.1.8.2 1.5.3 2.3.6.2 1.3.4 2 .4 1.2.1 2.5-.1 3.8-.6.1-.1.4-.1.5-.2.3-.1.6-.4.9-.6l.3-.2 2.2 1.2-.1.4c-.3 1.5 0 3 .9 4.6s2 2.7 3.6 3.4l.3.1v.3c0 .6 0 1.3-.1 1.9v.4l-.3.1c-.3.1-.6.2-.9.4-1.2.7-2.4 1.9-3.1 3.5-.7 1.4-.9 2.9-.7 4.1l.1.4-.3.1c-.3.1-.6.3-.8.4l-1.1.6-.4-.3c-.9-.9-2.3-1.4-3.9-1.5-1.7-.1-3.3.1-4.5.8-.3.1-.5.3-.8.5l-.3.2-.3-.1c-.5-.3-1.1-.6-1.7-1l-.3-.2.1-.3c.3-1.7-.1-3.2-1-4.8-.1-.3-.4-.6-.6-.9-.5.4-1.1.7-1.7 1l.6.9c.8 1.3 1 2.5.6 4-.1.7.1 1.4.8 1.8.9.6 1.7 1.1 2.5 1.5.3.1.5.2.8.3h.1c.2 0 .5-.1.7-.2.1-.1.3-.2.4-.4.2-.2.4-.4.7-.5.7-.4 1.7-.6 2.7-.6.2 0 .4 0 .7.1 1.2.1 2.4.6 3 1.2.4.4.8.6 1.2.6h.1c.3 0 .6-.1 1-.3.3-.1.5-.3.8-.4l.6-.4c.3-.1.6-.3.9-.5.8-.4 1.2-1.2.9-2.1-.2-.9 0-2 .5-3.2.6-1.1 1.4-2 2.4-2.5.3-.1.6-.3.9-.4.6-.1.9-.4 1.2-.9.1-.2.1-.4.1-.7.2-.7.2-1.7.2-2.6v-.1c0-.8-.4-1.4-1.1-1.7zm-28.6-6.2c-.6-.4-1.2-.6-1.7-.9-.6-.2-1-.4-1.4-.7-.6-.4-.6-.9-.5-1.2.1-.5.4-.9.9-1 .4-.1.9-.1 1.6-.1.4.1.9.2 1.3.5l.1.1.2-.4c.1-.3.2-.5.3-.8.1-.1-.1-.3-.1-.4l-.2-.1c-.2-.1-.5-.2-.7-.3-.3-.1-.5-.1-.9-.1H14v-1.2h-1.4v1.2l-.2.1c-.5.1-1 .4-1.4.6-.6.5-1.1 1.4-1.1 2.2 0 .9.4 1.6.9 2.1.6.5 1.3.8 1.9 1.1.5.2 1 .4 1.4.7.5.4.7.9.6 1.5-.1.5-.4.9-.9 1.2-.3.1-.6.1-.9.2h-.1c-.7 0-1.4-.2-2.1-.6l-.4-.2-.4.4c-.1.2-.1.4-.2.6-.1.2 0 .4.1.4.4.3.9.4 1.4.6.3.1.5.1.8.1h.2v1.2h1.5v-1.3l.2-.1c.2-.1.4-.1.6-.2 1-.4 1.7-1.2 1.9-2.3.3-1.2-.1-2.2-1.1-2.9z"/><path class="st1" d="M26.3 193.2c0-3.5-1.4-6.8-3.8-9.3s-5.7-3.9-9.3-3.9C6 180 .1 185.8.1 193.1c0 3.5 1.4 6.8 3.8 9.3 2.5 2.5 5.8 3.9 9.3 3.9l.1.3v-.3c7 0 13-5.9 13-13.1zm-13.2 11.4c-3-.1-5.9-1.3-8.1-3.5s-3.3-5-3.3-8.1c.1-6.2 5.2-11.3 11.5-11.3 3 0 5.9 1.2 8 3.4 2.2 2.2 3.3 5 3.3 8.1 0 6.3-5.1 11.4-11.4 11.4zm76.2-2c1.6 0 2.9-1.3 2.9-2.9 0-1.6-1.3-2.9-2.9-2.9s-2.9 1.3-2.9 2.9 1.3 2.9 2.9 2.9zm0-5.3c1.3 0 2.4 1.1 2.4 2.4s-1.1 2.4-2.4 2.4-2.4-1.1-2.4-2.4 1.1-2.4 2.4-2.4zM79 183.5c-5.4.7-9.9 3-12.7 6.6-.2.3.2.6.4.3 1.9-2.4 5.6-5.5 12.4-6.4.2-.1.2-.6-.1-.5zm2.8 13.3c-1.6 0-2.9 1.3-2.9 2.9 0 1.6 1.3 2.9 2.9 2.9s2.9-1.3 2.9-2.9c.1-1.6-1.3-2.9-2.9-2.9zm0 5.3c-1.3 0-2.4-1.1-2.4-2.4s1.1-2.4 2.4-2.4 2.4 1.1 2.4 2.4-1 2.4-2.4 2.4zm-7.5-5.3c-1.6 0-2.9 1.3-2.9 2.9 0 1.6 1.3 2.9 2.9 2.9s2.9-1.3 2.9-2.9c.1-1.6-1.3-2.9-2.9-2.9zm0 5.3c-1.3 0-2.4-1.1-2.4-2.4s1.1-2.4 2.4-2.4 2.4 1.1 2.4 2.4-1 2.4-2.4 2.4z"/><path class="st1" d="M84.5 217c12-.8 20.5-7.8 20.5-18.5 0-9.9-9.5-18.5-22.5-18.5-15 0-22.5 10.1-22.5 18.5 0 9.8 6.4 16 16.6 17.9.2 0 .5.2.6.4 2.5 5.5 7.1 7.1 7.7 7.1-1.8-1.6-3.5-6.8-.4-6.9zm-3 .5c-.3.8-.5 2 .4 3.7-1.5-1.4-2.3-2.8-3.1-4.5.8-.3 1.5-.4 3-1.4-3.5.1-4.6-.3-5-.3-9.9-1.8-15.4-7.7-15.4-16.5 0-8.2 7.5-17 21-17 11.7 0 21 7.6 21 17 0 9.6-7.5 16.2-19.1 17-1.2.1-2.3.8-2.8 2zm51.1-10.5c1.4.9 3.2.4 4-.9.1-.1.3-.8.4-1l3-7.4s.4-.7-.2-1.2c-.6-.4-1.3.3-1.3.3l-6.2 5.3s-.4.5-.6.7l-.1.1c-.9 1.4-.4 3.2 1 4.1zm.4-3.1l.5-.5 4-3.5-2.1 4.8c0 .1-.2.6-.2.6-.3.6-1 .7-1.7.3-.6-.4-.8-1.2-.5-1.7zm-6.7-12.5h-6.8c-.5 0-.9.4-.9.9s.4.9.9.9h6.8c.5 0 .9-.4.9-.9s-.5-.9-.9-.9zm0 5.7h-11.4c-.5 0-.9.4-.9.9s.4.9.9.9h11.4c.5 0 .9-.4.9-.9s-.5-.9-.9-.9zm0 17.1h-6.8c-.5 0-.9.4-.9.9s.4.9.9.9h6.8c.5 0 .9-.4.9-.9-.1-.5-.5-.9-.9-.9zm0 5.7h-2.9c-.5 0-.9.4-.9.9s.4.9.9.9h2.9c.5 0 .9-.4.9-.9-.1-.5-.5-.9-.9-.9zm0-34.2h-2.9c-.5 0-.9.4-.9.9s.4.9.9.9h2.9c.5 0 .9-.4.9-.9-.1-.5-.5-.9-.9-.9zm0 22.8h-11.4c-.5 0-.9.4-.9.9s.4.9.9.9h11.4c.5 0 .9-.4.9-.9-.1-.5-.5-.9-.9-.9zm0-5.7h-15.4c-.5 0-.9.4-.9.9s.4.9.9.9h15.4c.5 0 .9-.4.9-.9-.1-.5-.5-.9-.9-.9z"/><path class="st1" d="M153.5 190.5l1.2-1.1c.3-.3.4-.8.1-1.2l-1.1-1.2c-.3-.3-.8-.4-1.2-.1l-1.2 1.1c-.3.3-.4.8-.1 1.2l-1.8 1.6c-3.3-3.8-8.1-6.4-13.5-6.7v-1.8h1.1c.6 0 1.1-.5 1.1-1.1s-.5-1.1-1.1-1.1h-5c-.6 0-1.1.5-1.1 1.1s.5 1.1 1.1 1.1h1.1v3.4h.7v2.1h1.6l.2-2.1c3.3.2 6.4 1.2 9 3l-1.3 1.9c.4.3.8.6 1.2 1l1.5-1.8c2.5 2 4.4 4.7 5.5 7.8l-2.4.8c.2.5.3 1 .4 1.5l2.5-.6c.3 1.4.5 2.8.5 4.3 0 1.7-.2 3.3-.7 4.8l-2.6-.7c-.1.5-.3 1-.5 1.5l2.5 1c-1.2 3.1-3.2 5.7-5.8 7.7l-1.6-2c-.4.3-.8.6-1.3.9l1.4 2.1c-2.7 1.7-5.8 2.6-9.2 2.7l-.1-2.4H133l-.2 2.4h-.8c-.5 0-.9.4-.9.9s.4.9.9.9h2.6c10.9 0 19.7-8.8 19.7-19.7 0-4.3-1.4-8.4-3.8-11.6l1.9-1.6c.2.3.7.3 1.1 0z"/><path class="st8" d="M65.1 82.8h-5s-.1-4 0-5.3c.2-2.2.8-4.4 4.6-7.5 1.6 1.1 2.9 1.8 2.9 1.8s-2.4 2.7-2.4 5.7c-.1 2.2-.1 5.3-.1 5.3zm8.5 0h-5s-.1-4 0-5.3c.2-2.2.8-4.4 4.6-7.5 1.6 1.1 2.9 1.8 2.9 1.8s-2.4 2.7-2.4 5.7c-.1 2.2-.1 5.3-.1 5.3z"/><path class="st7" d="M90 70v10l10-5.2zm10 15H90l5.2 10z"/><path class="st1" d="M115 86.9c-.2 0-.3-.1-.4-.2l-4.3-3.6c-.3-.2-.3-.6-.1-.9.2-.3.6-.3.9-.1l3.9 3.2 4-3.2c.3-.2.7-.2.9.1.2.3.2.7-.1.9l-4.3 3.6c-.2.1-.4.2-.5.2zm0-16.9c.2 0 .3.1.4.2l4.3 3.6c.3.2.3.6.1.9-.2.3-.6.3-.9.1l-3.9-3.2-4 3.2c-.3.2-.7.2-.9-.1-.2-.3-.2-.7.1-.9l4.3-3.6c.2-.1.4-.2.5-.2z"/><path class="st9" d="M140.5 92c-.8 0-.7-.3-1-1.1l-2.4-8.1L156 71.7"/><path class="st10" d="M140.5 92c.6 0 .9-.3 1.3-.6l3.4-3.3-4.3-2.6"/><path class="st11" d="M141 85.5l10.4 7.7c1.2.6 2 .3 2.3-1.1l4.2-19.9c.4-1.7-.7-2.5-1.8-2l-24.8 9.5c-1.7.7-1.7 1.6-.3 2l6.4 2 14.7-9.3c.7-.4 1.3-.2.8.3"/></svg>