<svg xmlns="http://www.w3.org/2000/svg" viewBox="0 0 320 200"><title>item-1</title><ellipse cx="48.16" cy="103.93" rx="3.16" ry="3.19" fill="none" stroke="#d5d5d6" stroke-miterlimit="10"/><rect x="256.06" y="144.38" width="12.64" height="12.73" fill="none" stroke="#d5d5d6" stroke-miterlimit="10"/><ellipse cx="271.85" cy="103.93" rx="3.15" ry="3.19" fill="#d5d5d6"/><ellipse cx="58.08" cy="148.48" rx="3.15" ry="3.19" fill="#d5d5d6"/><polygon points="261.43 75.1 263.98 72.53 259.51 68.03 263.98 63.53 261.43 60.96 256.96 65.46 252.5 60.96 249.94 63.53 254.41 68.03 249.94 72.53 252.5 75.1 256.96 70.6 261.43 75.1" fill="#d5d5d6" fill-rule="evenodd"/><polygon points="77.48 47.11 73.87 47.11 73.87 53.5 67.55 53.5 67.55 57.11 73.87 57.11 73.87 63.48 77.48 63.48 77.48 57.11 83.78 57.11 83.78 53.5 77.48 53.5 77.48 47.11" fill="#d5d5d6" fill-rule="evenodd"/><path d="M154.83,22.5V32.83h3.88V53.57a20.65,20.65,0,0,0-19.37,20.51V84.5h-5.17a5.12,5.12,0,0,0-2.93.92l-19.1-10.61a3.75,3.75,0,0,0,.07-.64,3.89,3.89,0,0,0-2.58-3.64V56.08h3.88V45.75H103.17V56.08H107V70.53A3.87,3.87,0,0,0,108.33,78a3.84,3.84,0,0,0,2.54-1l18.66,10.37a5.1,5.1,0,0,0-.53,2.24V109H92.83v-3.87H82.5V115.5H92.83v-3.87H129v9L110.88,130.7a3.84,3.84,0,0,0-2.55-1,3.86,3.86,0,0,0-1.29,7.51v14.45h-3.87V162H113.5V151.67h-3.87V137.22a3.88,3.88,0,0,0,2.58-3.63,3.8,3.8,0,0,0-.07-.64L129,123.58v12.58a5.18,5.18,0,0,0,5.17,5.17h24.54v25.83h-3.87V177.5h10.33V167.17h-3.87V141.33h24.54a5.18,5.18,0,0,0,5.17-5.17V123.58l16.86,9.36a3.8,3.8,0,0,0-.07.64,3.88,3.88,0,0,0,2.58,3.63v14.45H206.5V162h10.33V151.67H213V137.22a3.86,3.86,0,0,0-1.29-7.51,3.84,3.84,0,0,0-2.54,1L191,120.63v-9h36.17v3.88H237.5V105.17H227.17V109H191V89.67a5.1,5.1,0,0,0-.53-2.24l18.66-10.37a3.84,3.84,0,0,0,2.54,1A3.87,3.87,0,0,0,213,70.53V56.08h3.88V45.75H206.5V56.08h3.88V70.53a3.89,3.89,0,0,0-2.58,3.64,3.75,3.75,0,0,0,.07.64l-19.1,10.61a5.12,5.12,0,0,0-2.93-.92h-5.17V74.07a20.65,20.65,0,0,0-19.37-20.51V32.83h3.88V22.5Zm2.58,2.58h5.17v5.17h-5.17ZM105.75,48.33h5.17V53.5h-5.17Zm103.33,0h5.17V53.5h-5.17ZM160,56.08a18.06,18.06,0,0,1,18.08,18V84.5h-5.16V74.09a12.93,12.93,0,0,0-25.85,0V84.5h-5.15V74.07A18.06,18.06,0,0,1,160,56.08Zm0,7.75a10.16,10.16,0,0,1,10.34,10.26V84.5H149.65V74.09A10.16,10.16,0,0,1,160,63.83Zm-51.66,9A1.29,1.29,0,1,1,107,74.17,1.27,1.27,0,0,1,108.33,72.88Zm103.33,0a1.29,1.29,0,1,1-1.29,1.29A1.27,1.27,0,0,1,211.67,72.88Zm-77.5,14.21h51.67a2.55,2.55,0,0,1,2.58,2.58V115.5H131.58V89.67A2.55,2.55,0,0,1,134.17,87.08ZM160,92.25a6.48,6.48,0,0,0-6.46,6.46,6.35,6.35,0,0,0,2.58,4.94v9.26h7.75v-9.27a6.35,6.35,0,0,0,2.58-4.93A6.48,6.48,0,0,0,160,92.25Zm0,2.58a3.87,3.87,0,0,1,1.94,7.23l-.65.37v7.9h-2.58v-7.9l-.65-.37A3.87,3.87,0,0,1,160,94.83ZM85.08,107.75h5.17v5.17H85.08Zm144.67,0h5.17v5.17h-5.17Zm-98.17,10.33h56.83V131H131.58Zm3.88,2.58v7.75h7.75v-7.75Zm10.33,0v7.75h7.75v-7.75Zm10.33,0v7.75h7.75v-7.75Zm10.33,0v7.75h7.75v-7.75Zm10.33,0v7.75h7.75v-7.75ZM138,123.25h2.58v2.58H138Zm10.33,0H151v2.58h-2.58Zm10.33,0h2.58v2.58h-2.58Zm10.33,0h2.58v2.58H169Zm10.33,0H182v2.58h-2.58Zm-71,9a1.29,1.29,0,1,1-1.29,1.29A1.27,1.27,0,0,1,108.33,132.29Zm103.33,0a1.29,1.29,0,1,1-1.29,1.29A1.27,1.27,0,0,1,211.67,132.29Zm-80.08,1.29h56.83v2.58a2.55,2.55,0,0,1-2.58,2.58H134.17a2.55,2.55,0,0,1-2.58-2.58Zm-25.83,20.67h5.17v5.17h-5.17Zm103.33,0h5.17v5.17h-5.17Zm-51.67,15.5h5.17v5.17h-5.17Z" fill="#347ffb"/></svg>