<svg xmlns="http://www.w3.org/2000/svg" viewBox="0 0 320 200"><title>item-3</title><ellipse cx="162.16" cy="58.93" rx="3.16" ry="3.19" fill="none" stroke="#d5d5d6" stroke-miterlimit="10"/><rect x="243.06" y="116.38" width="12.64" height="12.73" fill="none" stroke="#d5d5d6" stroke-miterlimit="10"/><ellipse cx="256.85" cy="66.93" rx="3.15" ry="3.19" fill="#d5d5d6"/><ellipse cx="229.08" cy="146.48" rx="3.15" ry="3.19" fill="#d5d5d6"/><polygon points="54.42 127.1 56.98 124.53 52.51 120.03 56.98 115.53 54.42 112.96 49.96 117.46 45.5 112.96 42.95 115.53 47.41 120.03 42.95 124.53 45.5 127.1 49.96 122.6 54.42 127.1" fill="#d5d5d6" fill-rule="evenodd"/><polygon points="107.48 38.11 103.87 38.11 103.87 44.5 97.55 44.5 97.55 48.11 103.87 48.11 103.87 54.48 107.48 54.48 107.48 48.11 113.78 48.11 113.78 44.5 107.48 44.5 107.48 38.11" fill="#d5d5d6" fill-rule="evenodd"/><path d="M234.15,47.32V61h-3.9V72.68h3.9V98h2V72.68H240V61h-3.9V47.32Zm-13.66,3.9V68.78h-3.9V90.24h3.9V102h2V90.24h3.9V68.78h-3.9V51.22Zm-13.66,3.9V80.49h-3.9V96.1h3.9v9.76h2V96.1h3.9V80.49h-3.9V55.12ZM83.9,62.93v9.76H80v33.17h3.9v17.56h2V105.85h3.9V72.68h-3.9V62.93Zm148.29,0H238v7.8H232.2Zm-39,2V84.39h-3.9v21.46h3.9v9.76h2v-9.76H199V84.39h-3.9V64.88Zm25.37,5.85h5.85V88.29h-5.85Zm-121,7.8V90.24h-3.9v25.37h3.9V141h2V115.61h3.9V90.24h-3.9V78.54Zm82,0V98h-3.9v17.56h3.9v13.66h2V115.61h3.9V98h-3.9V78.54Zm-68.29,3.9V103.9h-3.9v19.51h3.9v19.51h2V123.41h3.9V103.9h-3.9V82.44Zm93.66,0h5.85V94.15h-5.85Zm-13.66,3.9h5.85V103.9h-5.85ZM124.88,98v11.71H121v15.61h3.9v25.37h2V125.37h3.9V109.76h-3.9V98Zm41,0v11.71H162v21.46h3.9v17.56h2V131.22h3.9V109.76h-3.9V98Zm11.71,2h5.85v13.66h-5.85Zm-39,7.8v3.9h-3.9v23.41h3.9v15.61h2V135.12h3.9V111.71h-3.9v-3.9Zm13.66,3.9v11.71h-3.9v5.85h3.9v23.41h2V129.27H158v-5.85h-3.9V111.71Zm11.71,0h5.85v17.56H163.9Z" fill="#347ffb"/></svg>