<svg xmlns="http://www.w3.org/2000/svg" viewBox="0 0 200 36"><title>logo</title><path d="M57.46,4.22l-11.21,31-.07.19-2.06-4.22-4.3,2L51.1,2l4.3-2Zm28.07.73L74.32,36l-2.06-4.23-4.3,2,.26-.73L79.43,2l4.3-2,2.05,4.22Zm-24,26.85,6.6-18.25-4.31,2-2.05-4.23L55.15,29.57,57.2,33.8Zm-35.72-18H6.09L9.45,17,6.09,20.25h19.7L29.14,17ZM3.36,27.33H35.24l-3.35,3.23,3.35,3.22H3.36L0,30.56ZM13.14.26H45L41.66,3.49,45,6.71H13.14L9.78,3.49Z" fill="#fff" fill-rule="evenodd"/><path d="M174.17,19a12.34,12.34,0,0,1,7.74-11.55,13.45,13.45,0,0,1,5.2-1,13.71,13.71,0,0,1,5.2,1,12.44,12.44,0,0,1,4.09,2.69,12.3,12.3,0,0,1,2.63,4,12.64,12.64,0,0,1-2.65,13.71,12.63,12.63,0,0,1-4.13,2.72,13.53,13.53,0,0,1-5.21,1,13.17,13.17,0,0,1-6.67-1.7,11.92,11.92,0,0,1-4.58-4.56,12.5,12.5,0,0,1-1.62-6.3ZM103,16.76h13V21H103v5.87h13.68v4.24H98.17V6.83h18.3v4.24H103Zm16,14.35,8.62-12.35L119.31,6.83h5.58l6,8.61,6-8.61h5.45L134,18.7l8.58,12.41H137l-6.3-9.1-6.32,9.1Zm26.58,0V6.83h5.11l7.51,10.84,7.51-10.84h5.09V31.11H166V14.35l-7.79,10.53H158l-7.74-10.46v16.7ZM179,19a8.83,8.83,0,0,0,1,4.21,8.18,8.18,0,0,0,11.27,3.07,7.68,7.68,0,0,0,2.88-3,8.86,8.86,0,0,0,1-4.24,8.69,8.69,0,0,0-1-4.2,8.18,8.18,0,0,0-11.29-3.07,7.73,7.73,0,0,0-2.87,3A8.92,8.92,0,0,0,179,19Z" fill="#fff"/></svg>