<?xml version="1.0" encoding="utf-8"?>
<!-- Generator: Adobe Illustrator 21.0.0, SVG Export Plug-In . SVG Version: 6.00 Build 0)  -->
<svg version="1.1" id="Слой_1" xmlns="http://www.w3.org/2000/svg" xmlns:xlink="http://www.w3.org/1999/xlink" x="0px" y="0px"
	 viewBox="0 0 160 280" style="enable-background:new 0 0 160 280;" xml:space="preserve">
<style type="text/css">
	.st0{fill:#347FFB;}
	.st1{fill:#2C92FF;}
	.st2{fill:#5E9FEE;}
	.st3{fill:#4765AF;}
	.st4{fill:#536EA7;}
	.st5{fill:#0B0B0B;}
	.st6{fill:#C3CED6;}
	.st7{fill:#718493;}
	.st8{fill:#FFFFFF;}
	.st9{fill:#E3E4E7;}
</style>
<title>sprite</title>
<path class="st0" d="M15,75.5c0-0.1-0.1-0.3-0.2-0.4l-4.6-4.9c-0.2-0.2-0.6-0.2-0.8,0c-0.2,0.2-0.2,0.6,0,0.8l3.7,3.9H0.6
	c-0.3,0-0.6,0.3-0.6,0.6s0.3,0.6,0.6,0.6h12.5L9.4,80c-0.2,0.2-0.2,0.6,0,0.8s0.6,0.2,0.8,0l4.6-4.9C14.9,75.8,15,75.7,15,75.5
	L15,75.5z"/>
<path class="st0" d="M0,87.5c0,0.1,0.1,0.3,0.2,0.4l4.6,4.9c0.2,0.2,0.6,0.2,0.8,0c0.2-0.2,0.2-0.6,0-0.8l-3.7-3.9h12.5
	c0.3,0,0.6-0.3,0.6-0.6s-0.3-0.6-0.6-0.6H1.9L5.6,83c0.2-0.2,0.2-0.6,0-0.8S5,82,4.8,82.2l-4.6,4.9C0.1,87.2,0,87.3,0,87.5L0,87.5z"
	/>
<path class="st1" d="M34.5,2.7l-6.7,18.9v0.1l-1.2-2.6L24,20.3l6.8-19.1L33.3,0L34.5,2.7z M51.3,3.1l-6.7,19l-1.2-2.6l-2.6,1.2
	l0.2-0.4l6.7-18.9l2.6-1.3l1.2,2.6L51.3,3.1z M36.9,19.5l4-11.1l-2.6,1.2L37,7l-4,11.1l1.2,2.6L36.9,19.5z M15.5,8.5H3.7l2,2l-2,2
	h11.8l2-2L15.5,8.5z M2,16.8h19.1l-2,2l2,2H2l-2-2L2,16.8z M7.9,0.3H27l-2,2l2,2H7.9l-2-2L7.9,0.3z"/>
<path class="st1" d="M104.5,11.7c0-1,0.2-2,0.6-3c0.7-1.9,2.2-3.3,4.1-4.1c1-0.4,2-0.6,3.1-0.6s2.1,0.2,3.1,0.6
	c1.8,0.8,3.3,2.2,4,4.1c0.8,1.9,0.8,4,0,5.9c-0.7,1.9-2.2,3.3-4.1,4.1c-1,0.4-2.1,0.6-3.1,0.6c-1.4,0-2.8-0.3-4-1s-2.1-1.6-2.8-2.8
	C104.8,14.3,104.4,13,104.5,11.7L104.5,11.7z M61.8,10.3h7.8v2.6h-7.8v3.6H70v2.6H58.9V4.3h11v2.6h-8.1L61.8,10.3z M71.4,19.1
	l5.2-7.5l-5-7.3h3.3l3.6,5.3l3.6-5.3h3.3l-4.9,7.2l5.2,7.6h-3.3l-3.8-5.6l-3.8,5.6H71.4z M87.4,19.1V4.3h3l4.5,6.6l4.5-6.6h3.1v14.8
	h-2.9V8.9l-4.7,6.4h-0.1l-4.6-6.4v10.2H87.4z M107.4,11.7c0,0.9,0.2,1.8,0.6,2.6s1,1.4,1.7,1.9c0.8,0.5,1.6,0.7,2.5,0.7
	c1.8,0,3.4-1,4.2-2.5c0.4-0.8,0.6-1.7,0.6-2.6c0-0.9-0.2-1.8-0.6-2.6s-1-1.4-1.8-1.9s-1.6-0.7-2.5-0.7c-1.8,0-3.5,0.9-4.3,2.5
	C107.6,9.9,107.4,10.8,107.4,11.7L107.4,11.7z"/>
<path class="st2" d="M58,51.2c8.3,0.1,15.1-6.6,15.2-15c0-0.1,0-0.1,0-0.2c0-0.2,0-0.5,0-0.7c1-0.8,1.9-1.7,2.7-2.8
	c-1,0.4-2,0.7-3.1,0.8c1.1-0.7,2-1.7,2.3-3c-1,0.6-2.2,1.1-3.4,1.3c-2-2.1-5.4-2.2-7.5-0.2c-1.4,1.3-2,3.2-1.5,5.1
	c-4.3-0.2-8.3-2.2-11-5.6c-1.4,2.4-0.7,5.6,1.7,7.1c-0.9,0-1.7-0.2-2.5-0.6c0,0,0,0,0,0.1c0,2.5,1.8,4.7,4.3,5.2
	c-0.8,0.2-1.6,0.2-2.4,0.1c0.7,2.2,2.7,3.7,5,3.7c-1.9,1.5-4.2,2.3-6.6,2.3c-0.4,0-0.8,0-1.2-0.1C52.2,50.4,55.1,51.2,58,51.2"/>
<path class="st3" d="M98.3,30.3C97,30.4,95.8,31,94.9,32c-1.1,1.1-1.4,2.3-1.6,5.3l-0.1,2.8l-1.6,0.1L90,40.3v4.8l1.6,0.1l1.6,0.1
	l0.1,7.7v7.8h6.5v-7.5c0-5.6,0.1-7.6,0.3-7.8c0.7-0.3,1.5-0.4,2.3-0.3h2l0.1-0.8c0.1-0.4,0.2-1.5,0.3-2.4l0.2-1.7h-2.5
	c-2.1,0-2.5-0.1-2.6-0.4c-0.1-1.2,0-2.5,0.2-3.7c0.1-0.7,1.2-1,3.2-1h1.6V30h-2.6C100.9,30,99.6,30.1,98.3,30.3z"/>
<path class="st4" d="M144.9,40.3c1,0.9,1.9,1.9,2.8,2.9c0.4,0.5,0.7,0.9,1,1.5c0.4,0.8,0,1.6-0.6,1.6h-4.2c-1,0.1-2-0.3-2.7-1.1
	c-0.6-0.6-1.1-1.2-1.7-1.8c-0.2-0.3-0.5-0.5-0.8-0.7c-0.4-0.3-0.9-0.3-1.2,0.1c-0.1,0.1-0.1,0.2-0.2,0.3c-0.3,0.6-0.5,1.3-0.4,2
	c0,1-0.4,1.3-1.4,1.3c-2.1,0.2-4.2-0.3-6-1.3c-1.6-1-3-2.3-4.1-3.8c-2.1-3-3.9-6.2-5.3-9.5c-0.3-0.8-0.1-1.2,0.7-1.2
	c1.4,0,2.8,0,4.1,0c0.5,0,1,0.4,1.1,0.9c0.7,1.8,1.7,3.6,2.8,5.2c0.3,0.4,0.6,0.8,1,1.1c0.2,0.3,0.6,0.3,0.9,0
	c0.1-0.1,0.2-0.2,0.2-0.3c0.1-0.3,0.2-0.7,0.2-1.1c0.1-1.3,0.1-2.6-0.1-3.8c-0.1-0.7-0.6-1.4-1.4-1.5c-0.4-0.1-0.3-0.2-0.1-0.5
	c0.3-0.4,0.8-0.7,1.3-0.6h4.8c0.8,0.2,0.9,0.5,1,1.2v5.3c0,0.3,0.1,1.2,0.7,1.4s0.7-0.2,1-0.5c1.1-1.2,2-2.6,2.7-4.1
	c0.3-0.7,0.6-1.3,0.9-2c0.1-0.5,0.6-0.8,1.1-0.7h4.6c0.1,0,0.3,0,0.4,0c0.8,0.1,1,0.5,0.8,1.2c-0.4,1.2-1,2.3-1.8,3.2
	c-0.8,1.1-1.6,2.1-2.4,3.2S144,39.5,144.9,40.3L144.9,40.3z"/>
<path class="st0" d="M30.3,90c-0.2,0-0.3,0.1-0.3,0.3c0,0.1,0,0.1,0.1,0.2l8.5,8.5l-8.5,8.5c-0.1,0.1-0.1,0.3,0,0.4
	c0.1,0.1,0.3,0.1,0.4,0l0,0l0,0l8.5-8.5l8.5,8.5c0.1,0.1,0.3,0.1,0.4,0c0.1-0.1,0.1-0.3,0-0.4l0,0L39.4,99l8.5-8.5
	c0.1-0.1,0.1-0.3,0-0.4l0,0C47.8,90,47.8,90,47.7,90c-0.1,0-0.1,0-0.2,0.1L39,98.6l-8.5-8.5C30.4,90,30.3,90,30.3,90z"/>
<path class="st5" d="M30.3,70c-0.2,0-0.3,0.1-0.3,0.3c0,0.1,0,0.1,0.1,0.2l8.5,8.5l-8.5,8.5c-0.1,0.1-0.1,0.3,0,0.4s0.2,0.1,0.3,0
	l0,0l8.5-8.5l8.5,8.5c0.1,0.1,0.3,0.1,0.4,0c0.1-0.1,0.1-0.3,0-0.4l0,0L39.3,79l8.5-8.5c0.1-0.1,0.1-0.3,0-0.4l0,0
	C47.7,70,47.7,70,47.6,70c-0.1,0-0.1,0-0.2,0.1l-8.5,8.5l-8.5-8.5C30.4,70,30.3,70,30.3,70z"/>
<path class="st6" d="M86,110.5L86,110.5C86,110.4,86,110.4,86,110.5C86,110.4,86,110.4,86,110.5z"/>
<path class="st7" d="M26,39.1c0,0.3-0.1,0.5-0.3,0.7l-6.6,7.8c-0.4,0.5-1.1,0.6-1.6,0.2c0,0,0,0-0.1,0c-0.5-0.4-0.6-1.1-0.2-1.6
	c0,0,0,0,0-0.1l6-7.1l-6-7.2c-0.4-0.5-0.3-1.2,0.2-1.6c0.5-0.4,1.3-0.3,1.7,0.2l6.6,7.8C25.9,38.6,26,38.8,26,39.1z"/>
<path class="st7" d="M0,39.1c0-0.3,0.1-0.5,0.3-0.7l6.6-7.8c0.4-0.5,1.2-0.6,1.7-0.2c0.5,0.4,0.6,1.1,0.2,1.6l0,0l-6,7.1l6,7.2
	c0.4,0.5,0.4,1.2-0.1,1.6c-0.5,0.4-1.2,0.3-1.7-0.1L0.4,40C0.1,39.6,0,39.4,0,39.1z"/>
<g>
	<path class="st8" d="M44.9,142l-3.1-4.6l0.4-5.5c0-0.4-0.2-0.9-0.6-1l-5-2.4l-2.4-5c-0.2-0.4-0.6-0.7-1-0.6l-5.6,0.3l-4.6-3.1
		c-0.4-0.2-0.9-0.2-1.2,0l-4.5,3l-5.5-0.4c-0.4,0-0.9,0.2-1,0.6l-2.4,5l-5,2.4c-0.4,0.2-0.7,0.6-0.6,1l0.4,5.5l-3,4.6
		c-0.2,0.4-0.2,0.8,0,1.2l3,4.6l-0.4,5.5c0,0.4,0.2,0.9,0.6,1l5,2.4l2.4,5c0.2,0.4,0.6,0.7,1,0.6l5.5-0.4l4.6,3
		c0.2,0.2,0.4,0.2,0.6,0.2c0.2,0,0.4-0.1,0.6-0.2l4.6-3l5.5,0.4c0.4,0,0.9-0.2,1-0.6l2.4-5l5-2.4c0.4-0.2,0.7-0.6,0.6-1l-0.3-5.5
		l3-4.6C45.1,142.7,45.1,142.3,44.9,142z M39.8,146.8c-0.2,0.2-0.2,0.4-0.2,0.7l0.3,5.2l-4.6,2.3c-0.2,0.1-0.4,0.3-0.5,0.5l-2.3,4.6
		l-5.2-0.3c-0.2,0-0.4,0.1-0.7,0.2l-4.3,2.9l-4.3-2.9c-0.2-0.2-0.4-0.2-0.6-0.2h-0.1l-5.2,0.3l-2.3-4.6c-0.1-0.2-0.3-0.4-0.5-0.5
		L5,152.6l0.3-5.2c0-0.2-0.1-0.4-0.2-0.7l-2.9-4.3l2.9-4.3c0.2-0.2,0.2-0.4,0.2-0.7L5,132.4l4.6-2.3c0.2-0.1,0.4-0.3,0.5-0.5
		l2.3-4.6l5.2,0.3c0.2,0,0.4-0.1,0.7-0.2l4.3-2.9l4.3,2.9c0.2,0.2,0.4,0.2,0.7,0.2l5.2-0.3l2.3,4.6c0.1,0.2,0.3,0.4,0.5,0.5l4.6,2.3
		l-0.3,5.2c0,0.2,0.1,0.4,0.2,0.7l2.9,4.3L39.8,146.8z"/>
	<path class="st8" d="M16.8,141.2c2.7,0,5-2.2,5-5c0-2.7-2.2-5-5-5c-2.7,0-5,2.2-5,5C11.9,139,14.1,141.2,16.8,141.2z M16.8,133.4
		c1.6,0,2.8,1.3,2.8,2.8c0,1.6-1.3,2.8-2.8,2.8s-2.8-1.3-2.8-2.8S15.3,133.4,16.8,133.4z"/>
	<path class="st8" d="M28,143.8c-2.7,0-5,2.2-5,5c0,2.7,2.2,5,5,5c2.7,0,5-2.2,5-5C33,146,30.7,143.8,28,143.8z M28,151.6
		c-1.6,0-2.8-1.3-2.8-2.8s1.3-2.8,2.8-2.8s2.8,1.3,2.8,2.8S29.5,151.6,28,151.6z"/>
	<rect x="9.4" y="141.4" transform="matrix(0.7071 -0.7071 0.7071 0.7071 -94.1949 57.5789)" class="st8" width="26" height="2.2"/>
</g>
<g>
	<path class="st8" d="M96,159.3H82.2v-3.6h-3.6v-4.3h7.9c1.2,0,2.1-1,2.1-2.1v-15.7c0-1.2-1-2.1-2.1-2.1H85v-4.3
		c0-3.9-3.2-7.2-7.2-7.2c-3.9,0-7.2,3.2-7.2,7.2v4.3h-1.4c-1.2,0-2.1,1-2.1,2.1v15.7c0,1.2,1,2.1,2.1,2.1h7.9v4.3h-3.6v3.6H60v1.4
		h13.6v3.6h8.6v-3.6H96L96,159.3L96,159.3z M72.2,127.2c0-3.2,2.6-5.7,5.7-5.7c3.2,0,5.7,2.6,5.7,5.7v4.3H72.2V127.2z M69.3,150.1
		c-0.4,0-0.7-0.3-0.7-0.7v-15.7c0-0.4,0.3-0.7,0.7-0.7h1.4H85h1.4c0.4,0,0.7,0.3,0.7,0.7v15.7c0,0.4-0.3,0.7-0.7,0.7H69.3z
		 M80.7,162.9H75v-5.7h5.7V162.9z"/>
	<rect x="77.2" y="159.3" class="st8" width="1.4" height="1.4"/>
	<path class="st8" d="M76.1,143l-0.6,2.8h4.6l-0.6-2.8c0.7-0.5,1.1-1.4,1.1-2.3c0-1.6-1.3-2.9-2.9-2.9c-1.6,0-2.9,1.3-2.9,2.9
		C75,141.6,75.4,142.5,76.1,143z M77.9,139.3c0.8,0,1.4,0.6,1.4,1.4c0,0.5-0.3,1-0.8,1.3l-0.5,0.2l0.4,2.1h-1.1l0.4-2.1l-0.5-0.2
		c-0.5-0.2-0.8-0.7-0.8-1.3C76.5,140,77.1,139.3,77.9,139.3z"/>
	<rect x="77.2" y="147.2" class="st8" width="1.4" height="1.4"/>
	<rect x="80" y="147.2" class="st8" width="1.4" height="1.4"/>
	<rect x="74.3" y="147.2" class="st8" width="1.4" height="1.4"/>
</g>
<g>
	<path class="st8" d="M132.5,120c-12.4,0-22.5,10.1-22.5,22.5s10.1,22.5,22.5,22.5s22.5-10.1,22.5-22.5S144.9,120,132.5,120z
		 M132.5,163.5c-11.6,0-21-9.4-21-21c0-11.6,9.4-21,21-21s21,9.4,21,21C153.5,154.1,144.1,163.5,132.5,163.5z"/>
	<path class="st8" d="M149.8,134.9c-0.3-0.3-0.7-0.3-1,0l-4.3,4.3c-0.5-0.3-1-0.5-1.6-0.5c-0.8,0-1.6,0.3-2.2,0.9l-3.5-2.2
		c0.1-0.3,0.2-0.6,0.2-1c0-1.7-1.4-3.1-3.1-3.1c-1.7,0-3.1,1.4-3.1,3.1c0,1,0.5,1.9,1.2,2.4l-2.9,6.6c-0.2,0-0.4-0.1-0.6-0.1
		c-0.7,0-1.3,0.2-1.8,0.6l-3.3-2.9c0.2-0.4,0.4-0.9,0.4-1.4c0-1.7-1.4-3.1-3.1-3.1s-3.1,1.4-3.1,3.1c0,0.6,0.2,1.2,0.5,1.6l-3.5,3.5
		c-0.3,0.3-0.3,0.7,0,1c0.1,0.1,0.3,0.2,0.5,0.2c0.2,0,0.3-0.1,0.5-0.2l3.5-3.5c0.5,0.3,1,0.5,1.6,0.5c0.7,0,1.3-0.2,1.8-0.6
		l3.3,2.8c-0.2,0.4-0.4,0.9-0.4,1.4c0,1.7,1.4,3.1,3.1,3.1s3.1-1.4,3.1-3.1c0-1-0.5-1.9-1.2-2.5l2.9-6.6c0.2,0,0.4,0.1,0.6,0.1
		c0.8,0,1.6-0.3,2.2-0.9l3.5,2.2c-0.1,0.3-0.2,0.6-0.2,1c0,1.7,1.4,3.1,3.1,3.1c1.7,0,3.1-1.4,3.1-3.1c0-0.6-0.2-1.2-0.5-1.6
		l4.3-4.3C150.1,135.6,150.1,135.1,149.8,134.9z M121.3,143.5c-0.9,0-1.7-0.8-1.7-1.7c0-0.9,0.8-1.7,1.7-1.7c0.9,0,1.7,0.8,1.7,1.7
		C123,142.7,122.2,143.5,121.3,143.5z M129.1,150.2c-0.9,0-1.7-0.8-1.7-1.7c0-0.9,0.8-1.7,1.7-1.7c0.9,0,1.7,0.8,1.7,1.7
		C130.8,149.5,130,150.2,129.1,150.2z M134.4,138.2c-0.9,0-1.7-0.8-1.7-1.7s0.8-1.7,1.7-1.7c0.9,0,1.7,0.8,1.7,1.7
		C136.1,137.4,135.3,138.2,134.4,138.2z M142.9,143.5c-0.9,0-1.7-0.8-1.7-1.7c0-0.9,0.8-1.7,1.7-1.7c0.5,0,0.9,0.2,1.2,0.5
		c0,0,0,0,0,0l0,0c0.3,0.3,0.5,0.7,0.5,1.2C144.6,142.7,143.8,143.5,142.9,143.5z"/>
</g>
<g>
	<path class="st8" d="M26,200.8c-0.4,1.4-0.1,2.8,0.6,4c0.9,1.4,2.5,2.5,4.2,2.5c0.1,0,0.1,0,0.3,0c0.9,0,1.8-0.2,2.6-0.6
		c2.5-1.3,3.4-4.3,2.1-6.9c-0.6-1.3-1.8-2.2-3.2-2.7c-0.4-0.1-0.8-0.2-1.2-0.2c-1-0.1-1.9,0.1-2.8,0.6
		C27.2,198.3,26.3,199.4,26,200.8z M29.4,199.3c0.5-0.3,1.1-0.4,1.7-0.4c0.1,0,0.1,0,0.1,0c0.3,0,0.5,0.1,0.8,0.1
		c0.9,0.3,1.6,0.9,2,1.7c0.9,1.5,0.3,3.5-1.3,4.3c-0.6,0.3-1.2,0.4-1.9,0.4c-1.1-0.1-2.1-0.6-2.7-1.6c-0.5-0.8-0.6-1.7-0.4-2.6
		C28,200.5,28.6,199.8,29.4,199.3z"/>
	<path class="st8" d="M43.9,199.3c-1.4-0.5-2.3-1.3-3-2.7c-0.7-1.4-0.9-2.5-0.6-3.8c0.1-0.8-0.1-1.5-0.8-1.9l-1-0.6
		c-0.4-0.3-0.9-0.6-1.4-0.8c-0.5-0.3-1.3-0.4-1.8-0.1c-0.1,0.1-0.2,0.1-0.4,0.2l-0.1,0.1c-0.2,0.1-0.5,0.4-0.7,0.5
		c-0.1,0.1-0.1,0.1-0.2,0.1c-1.1,0.4-2.1,0.6-3,0.5c-0.9-0.1-1.7-0.3-2.4-0.8c0.1,0.8,0.2,1.5,0.3,2.3c0.6,0.2,1.3,0.4,2,0.4
		c1.2,0.1,2.5-0.1,3.8-0.6c0.1-0.1,0.4-0.1,0.5-0.2c0.3-0.1,0.6-0.4,0.9-0.6l0.3-0.2l2.2,1.2l-0.1,0.4c-0.3,1.5,0,3,0.9,4.6
		c0.9,1.6,2,2.7,3.6,3.4l0.3,0.1v0.3c0,0.6,0,1.3-0.1,1.9v0.4l-0.3,0.1c-0.3,0.1-0.6,0.2-0.9,0.4c-1.2,0.7-2.4,1.9-3.1,3.5
		c-0.7,1.4-0.9,2.9-0.7,4.1l0.1,0.4l-0.3,0.1c-0.3,0.1-0.6,0.3-0.8,0.4l-1.1,0.6l-0.4-0.3c-0.9-0.9-2.3-1.4-3.9-1.5
		c-1.7-0.1-3.3,0.1-4.5,0.8c-0.3,0.1-0.5,0.3-0.8,0.5l-0.3,0.2l-0.3-0.1c-0.5-0.3-1.1-0.6-1.7-1l-0.3-0.2l0.1-0.3
		c0.3-1.7-0.1-3.2-1-4.8c-0.1-0.3-0.4-0.6-0.6-0.9c-0.5,0.4-1.1,0.7-1.7,1c0.2,0.3,0.4,0.6,0.6,0.9c0.8,1.3,1,2.5,0.6,4
		c-0.1,0.7,0.1,1.4,0.8,1.8c0.9,0.6,1.7,1.1,2.5,1.5c0.3,0.1,0.5,0.2,0.8,0.3H26c0.2,0,0.5-0.1,0.7-0.2c0.1-0.1,0.3-0.2,0.4-0.4
		c0.2-0.2,0.4-0.4,0.7-0.5c0.7-0.4,1.7-0.6,2.7-0.6c0.2,0,0.4,0,0.7,0.1c1.2,0.1,2.4,0.6,3,1.2c0.4,0.4,0.8,0.6,1.2,0.6h0.1
		c0.3,0,0.6-0.1,1-0.3c0.3-0.1,0.5-0.3,0.8-0.4l0.6-0.4c0.3-0.1,0.6-0.3,0.9-0.5c0.8-0.4,1.2-1.2,0.9-2.1c-0.2-0.9,0-2,0.5-3.2
		c0.6-1.1,1.4-2,2.4-2.5c0.3-0.1,0.6-0.3,0.9-0.4c0.6-0.1,0.9-0.4,1.2-0.9c0.1-0.2,0.1-0.4,0.1-0.7C45,203,45,202,45,201.1V201
		C45,200.2,44.6,199.6,43.9,199.3z"/>
	<path class="st8" d="M15.3,193.1c-0.6-0.4-1.2-0.6-1.7-0.9c-0.6-0.2-1-0.4-1.4-0.7c-0.6-0.4-0.6-0.9-0.5-1.2c0.1-0.5,0.4-0.9,0.9-1
		c0.4-0.1,0.9-0.1,1.6-0.1c0.4,0.1,0.9,0.2,1.3,0.5l0.1,0.1l0.2-0.4c0.1-0.3,0.2-0.5,0.3-0.8c0.1-0.1-0.1-0.3-0.1-0.4l-0.2-0.1
		c-0.2-0.1-0.5-0.2-0.7-0.3c-0.3-0.1-0.5-0.1-0.9-0.1H14v-1.2h-1.4v1.2l-0.2,0.1c-0.5,0.1-1,0.4-1.4,0.6c-0.6,0.5-1.1,1.4-1.1,2.2
		c0,0.9,0.4,1.6,0.9,2.1c0.6,0.5,1.3,0.8,1.9,1.1c0.5,0.2,1,0.4,1.4,0.7c0.5,0.4,0.7,0.9,0.6,1.5c-0.1,0.5-0.4,0.9-0.9,1.2
		c-0.3,0.1-0.6,0.1-0.9,0.2h-0.1c-0.7,0-1.4-0.2-2.1-0.6l-0.4-0.2l-0.4,0.4c-0.1,0.2-0.1,0.4-0.2,0.6c-0.1,0.2,0,0.4,0.1,0.4
		c0.4,0.3,0.9,0.4,1.4,0.6c0.3,0.1,0.5,0.1,0.8,0.1h0.2v1.2h1.5v-1.3l0.2-0.1c0.2-0.1,0.4-0.1,0.6-0.2c1-0.4,1.7-1.2,1.9-2.3
		C16.7,194.8,16.3,193.8,15.3,193.1z"/>
	<path class="st8" d="M26.3,193.2c0-3.5-1.4-6.8-3.8-9.3c-2.4-2.5-5.7-3.9-9.3-3.9c-7.2,0-13.1,5.8-13.1,13.1c0,3.5,1.4,6.8,3.8,9.3
		c2.5,2.5,5.8,3.9,9.3,3.9l0.1,0.3v-0.3C20.3,206.3,26.3,200.4,26.3,193.2z M13.1,204.6c-3-0.1-5.9-1.3-8.1-3.5s-3.3-5-3.3-8.1
		c0.1-6.2,5.2-11.3,11.5-11.3c3,0,5.9,1.2,8,3.4c2.2,2.2,3.3,5,3.3,8.1C24.5,199.5,19.4,204.6,13.1,204.6z"/>
</g>
<g>
	<path class="st8" d="M89.3,202.6c1.6,0,2.9-1.3,2.9-2.9c0-1.6-1.3-2.9-2.9-2.9s-2.9,1.3-2.9,2.9C86.4,201.3,87.7,202.6,89.3,202.6z
		 M89.3,197.3c1.3,0,2.4,1.1,2.4,2.4s-1.1,2.4-2.4,2.4c-1.3,0-2.4-1.1-2.4-2.4S88,197.3,89.3,197.3z"/>
	<path class="st8" d="M79,183.5c-5.4,0.7-9.9,3-12.7,6.6c-0.2,0.3,0.2,0.6,0.4,0.3c1.9-2.4,5.6-5.5,12.4-6.4
		C79.3,183.9,79.3,183.4,79,183.5z"/>
	<path class="st8" d="M81.8,196.8c-1.6,0-2.9,1.3-2.9,2.9c0,1.6,1.3,2.9,2.9,2.9c1.6,0,2.9-1.3,2.9-2.9
		C84.8,198.1,83.4,196.8,81.8,196.8z M81.8,202.1c-1.3,0-2.4-1.1-2.4-2.4s1.1-2.4,2.4-2.4s2.4,1.1,2.4,2.4S83.2,202.1,81.8,202.1z"
		/>
	<path class="st8" d="M74.3,196.8c-1.6,0-2.9,1.3-2.9,2.9c0,1.6,1.3,2.9,2.9,2.9c1.6,0,2.9-1.3,2.9-2.9
		C77.3,198.1,75.9,196.8,74.3,196.8z M74.3,202.1c-1.3,0-2.4-1.1-2.4-2.4s1.1-2.4,2.4-2.4s2.4,1.1,2.4,2.4S75.7,202.1,74.3,202.1z"
		/>
	<path class="st8" d="M84.5,217c12-0.8,20.5-7.8,20.5-18.5c0-9.9-9.5-18.5-22.5-18.5c-15,0-22.5,10.1-22.5,18.5
		c0,9.8,6.4,16,16.6,17.9c0.2,0,0.5,0.2,0.6,0.4c2.5,5.5,7.1,7.1,7.7,7.1C83.1,222.3,81.4,217.1,84.5,217z M81.5,217.5
		c-0.3,0.8-0.5,2,0.4,3.7c-1.5-1.4-2.3-2.8-3.1-4.5c0.8-0.3,1.5-0.4,3-1.4c-3.5,0.1-4.6-0.3-5-0.3c-9.9-1.8-15.4-7.7-15.4-16.5
		c0-8.2,7.5-17,21-17c11.7,0,21,7.6,21,17c0,9.6-7.5,16.2-19.1,17C83.1,215.6,82,216.3,81.5,217.5z"/>
</g>
<g>
	<path class="st8" d="M132.6,207c1.4,0.9,3.2,0.4,4-0.9c0.1-0.1,0.3-0.8,0.4-1l3-7.4c0,0,0.4-0.7-0.2-1.2c-0.6-0.4-1.3,0.3-1.3,0.3
		l-6.2,5.3c0,0-0.4,0.5-0.6,0.7l-0.1,0.1C130.7,204.3,131.2,206.1,132.6,207z M133,203.9c0.1-0.1,0.4-0.4,0.5-0.5l4-3.5l-2.1,4.8
		c0,0.1-0.2,0.6-0.2,0.6c-0.3,0.6-1,0.7-1.7,0.3C132.9,205.2,132.7,204.4,133,203.9z"/>
	<path class="st8" d="M126.3,191.4h-6.8c-0.5,0-0.9,0.4-0.9,0.9s0.4,0.9,0.9,0.9h6.8c0.5,0,0.9-0.4,0.9-0.9S126.7,191.4,126.3,191.4
		z"/>
	<path class="st8" d="M126.3,197.1h-11.4c-0.5,0-0.9,0.4-0.9,0.9s0.4,0.9,0.9,0.9h11.4c0.5,0,0.9-0.4,0.9-0.9
		S126.7,197.1,126.3,197.1z"/>
	<path class="st8" d="M126.3,214.2h-6.8c-0.5,0-0.9,0.4-0.9,0.9c0,0.5,0.4,0.9,0.9,0.9h6.8c0.5,0,0.9-0.4,0.9-0.9
		C127.1,214.6,126.7,214.2,126.3,214.2z"/>
	<path class="st8" d="M126.3,219.9h-2.9c-0.5,0-0.9,0.4-0.9,0.9c0,0.5,0.4,0.9,0.9,0.9h2.9c0.5,0,0.9-0.4,0.9-0.9
		C127.1,220.3,126.7,219.9,126.3,219.9z"/>
	<path class="st8" d="M126.3,185.7h-2.9c-0.5,0-0.9,0.4-0.9,0.9c0,0.5,0.4,0.9,0.9,0.9h2.9c0.5,0,0.9-0.4,0.9-0.9
		C127.1,186.1,126.7,185.7,126.3,185.7z"/>
	<path class="st8" d="M126.3,208.5h-11.4c-0.5,0-0.9,0.4-0.9,0.9c0,0.5,0.4,0.9,0.9,0.9h11.4c0.5,0,0.9-0.4,0.9-0.9
		C127.1,208.9,126.7,208.5,126.3,208.5z"/>
	<path class="st8" d="M126.3,202.8h-15.4c-0.5,0-0.9,0.4-0.9,0.9c0,0.5,0.4,0.9,0.9,0.9h15.4c0.5,0,0.9-0.4,0.9-0.9
		C127.1,203.2,126.7,202.8,126.3,202.8z"/>
	<path class="st8" d="M153.5,190.5l1.2-1.1c0.3-0.3,0.4-0.8,0.1-1.2l-1.1-1.2c-0.3-0.3-0.8-0.4-1.2-0.1l-1.2,1.1
		c-0.3,0.3-0.4,0.8-0.1,1.2l-1.8,1.6c-3.3-3.8-8.1-6.4-13.5-6.7v-1.8h1.1c0.6,0,1.1-0.5,1.1-1.1s-0.5-1.1-1.1-1.1H132
		c-0.6,0-1.1,0.5-1.1,1.1s0.5,1.1,1.1,1.1h1.1l0,3.4h0.7l0,2.1c0.5,0,1,0,1.6,0l0.2-2.1c3.3,0.2,6.4,1.2,9,3l-1.3,1.9
		c0.4,0.3,0.8,0.6,1.2,1l1.5-1.8c2.5,2,4.4,4.7,5.5,7.8l-2.4,0.8c0.2,0.5,0.3,1,0.4,1.5l2.5-0.6c0.3,1.4,0.5,2.8,0.5,4.3
		c0,1.7-0.2,3.3-0.7,4.8l-2.6-0.7c-0.1,0.5-0.3,1-0.5,1.5l2.5,1c-1.2,3.1-3.2,5.7-5.8,7.7l-1.6-2c-0.4,0.3-0.8,0.6-1.3,0.9l1.4,2.1
		c-2.7,1.7-5.8,2.6-9.2,2.7l-0.1-2.4c-0.5,0-1,0-1.6,0l-0.2,2.4H132c-0.5,0-0.9,0.4-0.9,0.9c0,0.5,0.4,0.9,0.9,0.9h2.6
		c10.9,0,19.7-8.8,19.7-19.7c0-4.3-1.4-8.4-3.8-11.6l1.9-1.6C152.6,190.8,153.1,190.8,153.5,190.5z"/>
</g>
<g>
	<path class="st9" d="M65.1,82.8h-5c0,0-0.1-4,0-5.3c0.2-2.2,0.8-4.4,4.6-7.5c1.6,1.1,2.9,1.8,2.9,1.8s-2.4,2.7-2.4,5.7
		C65.1,79.7,65.1,82.8,65.1,82.8z"/>
	<path class="st9" d="M73.6,82.8h-5c0,0-0.1-4,0-5.3c0.2-2.2,0.8-4.4,4.6-7.5c1.6,1.1,2.9,1.8,2.9,1.8s-2.4,2.7-2.4,5.7
		C73.6,79.7,73.6,82.8,73.6,82.8z"/>
</g>
<polygon class="st7" points="90,70 90,80 100,74.8 "/>
<polygon class="st7" points="100,85 90,85 95.2,95 "/>
<path class="st8" d="M115,86.9c-0.2,0-0.3-0.1-0.4-0.2l-4.3-3.6c-0.3-0.2-0.3-0.6-0.1-0.9c0.2-0.3,0.6-0.3,0.9-0.1l3.9,3.2l4-3.2
	c0.3-0.2,0.7-0.2,0.9,0.1c0.2,0.3,0.2,0.7-0.1,0.9l-4.3,3.6C115.3,86.8,115.1,86.9,115,86.9z"/>
<path class="st8" d="M115,70c0.2,0,0.3,0.1,0.4,0.2l4.3,3.6c0.3,0.2,0.3,0.6,0.1,0.9c-0.2,0.3-0.6,0.3-0.9,0.1l-3.9-3.2l-4,3.2
	c-0.3,0.2-0.7,0.2-0.9-0.1c-0.2-0.3-0.2-0.7,0.1-0.9l4.3-3.6C114.7,70.1,114.9,70,115,70z"/>
</svg>
